<svg width="462" height="89" viewBox="0 0 462 89" fill="none" xmlns="http://www.w3.org/2000/svg">
<g clip-path="url(#clip0_1_3)">
<path d="M157.577 89C132.918 89 112.843 69.0225 112.843 44.4827C112.843 19.9429 132.918 0 157.577 0C182.237 0 202.312 19.9775 202.312 44.5173C202.312 69.0571 182.237 89.0346 157.577 89.0346V89ZM157.577 6.1868C136.356 6.1868 119.06 23.3647 119.06 44.5173C119.06 65.6699 136.322 82.8478 157.577 82.8478C178.833 82.8478 196.095 65.6699 196.095 44.5173C196.095 23.3647 178.833 6.1868 157.577 6.1868Z" fill="#7CB6E4"/>
<path d="M157.577 67.2598C144.9 67.2598 134.585 57.0291 134.585 44.4827C134.585 31.9363 144.9 21.7056 157.577 21.7056C170.254 21.7056 180.57 31.9363 180.57 44.4827C180.57 57.0291 170.254 67.2598 157.577 67.2598ZM157.577 27.927C148.304 27.927 140.802 35.3581 140.802 44.5173C140.802 53.6765 148.339 61.1076 157.577 61.1076C166.816 61.1076 174.353 53.6765 174.353 44.5173C174.353 35.3581 166.816 27.927 157.577 27.927Z" fill="#7CB6E4"/>
<path d="M157.577 17.1433C166.851 17.1433 175.082 21.7402 180.049 28.7565L185.71 26.026C179.667 16.9359 169.317 10.9219 157.577 10.9219C145.838 10.9219 135.905 16.694 129.827 25.4384L135.523 28.1689C140.524 21.4637 148.582 17.1087 157.577 17.1087V17.1433Z" fill="#7CB6E4"/>
<path d="M183.279 34.7013C184.46 37.7429 185.12 41.061 185.12 44.5173C185.12 58.3425 174.769 69.7829 161.398 71.6147V77.8361C178.208 75.9697 191.336 61.7297 191.336 44.4827C191.336 40.0586 190.468 35.8419 188.905 31.9709L183.279 34.6668V34.7013Z" fill="#7CB6E4"/>
<path d="M130.07 44.5173C130.07 40.819 130.799 37.2936 132.154 34.0792L126.527 31.3833C124.791 35.4272 123.853 39.8513 123.853 44.5173C123.853 62.2136 137.676 76.7301 155.111 77.9744V71.753C141.08 70.5087 130.07 58.7573 130.07 44.4827V44.5173Z" fill="#7CB6E4"/>
<path d="M9.27334 24.3324H0V64.6676H9.27334V24.3324Z" fill="#1F274D"/>
<path d="M43.5187 64.6676H23.6522V24.3324H42.7199C51.9932 24.3324 57.3766 28.7565 57.3766 35.6691C57.3766 40.1623 53.9035 43.0311 51.507 43.9988C54.355 45.1394 58.0365 47.6971 58.0365 53.0544C58.0365 60.5891 51.9585 64.6676 43.5187 64.6676ZM41.9558 31.3487H32.8908V40.6462H41.9558C45.8805 40.6462 48.0685 38.7798 48.0685 36.0148C48.0685 33.2497 45.8805 31.3833 41.9558 31.3833V31.3487ZM42.581 47.7317H32.9256V57.6513H42.581C46.7835 57.6513 48.7632 55.3701 48.7632 52.6742C48.7632 49.9783 46.7487 47.7317 42.581 47.7317Z" fill="#1F274D"/>
<path d="M99.263 60.8311C96.1371 63.4924 91.6567 64.6676 86.7249 64.6676H69.6022V24.3324H86.7249C91.6567 24.3324 96.1024 25.5076 99.263 28.1689C104.577 32.6967 104.056 38.2614 104.056 44.3099C104.056 50.3584 104.577 56.2687 99.263 60.7965M92.8029 33.8718C91.2052 32.2128 89.0866 31.3833 85.8566 31.3833H78.8755V57.6858H85.8566C89.0519 57.6858 91.1705 56.8218 92.8029 55.1973C94.5395 53.4 94.8173 50.4967 94.8173 44.379C94.8173 38.2614 94.5395 35.7037 92.8029 33.9064V33.8718Z" fill="#1F274D"/>
<path d="M214.19 26.4062V31.6252H221.345V33.9755H214.19V41.2338H211.585V24.0905H222.595V26.4408H214.19V26.4062Z" fill="#1F274D"/>
<path d="M226.207 41.1992V24.0559H237.217V26.4062H228.812V31.4179H235.967V33.7336H228.812V38.8835H237.217V41.2338H226.207V41.1992Z" fill="#1F274D"/>
<path d="M250.797 41.1992L247.185 33.9756H243.92V41.1992H241.315V24.0559H247.984C251.249 24.0559 253.332 26.1643 253.332 29.0676C253.332 31.5216 251.839 33.0769 249.894 33.6299L253.853 41.1992H250.797ZM247.775 26.4062H243.92V31.7635H247.775C249.512 31.7635 250.693 30.7612 250.693 29.1022C250.693 27.4431 249.512 26.4062 247.775 26.4062Z" fill="#1F274D"/>
<path d="M263.439 26.4062V41.1992H260.834V26.4062H256.111V24.0559H268.198V26.4062H263.474H263.439Z" fill="#1F274D"/>
<path d="M271.636 41.1992V24.0559H274.241V41.1992H271.636Z" fill="#1F274D"/>
<path d="M289.523 39.3674C288.203 40.7499 286.605 41.3029 284.799 41.3029C282.993 41.3029 281.465 40.6462 280.284 39.4711C278.582 37.7775 278.617 35.8765 278.617 32.593C278.617 29.3095 278.617 27.4086 280.284 25.715C281.465 24.5398 282.959 23.8831 284.799 23.8831C288.446 23.8831 290.565 26.268 291.051 29.2058H288.411C287.96 27.3394 286.71 26.2334 284.799 26.2334C283.792 26.2334 282.854 26.6482 282.264 27.3049C281.43 28.2035 281.222 29.1713 281.222 32.6276C281.222 36.0839 281.43 37.0517 282.264 37.9849C282.854 38.6416 283.792 39.0218 284.799 39.0218C285.945 39.0218 286.918 38.5724 287.613 37.812C288.238 37.0862 288.481 36.2221 288.481 35.1161V34.1484H284.799V31.9363H291.086V34.5631C291.086 36.7752 290.669 38.1922 289.523 39.402V39.3674Z" fill="#1F274D"/>
<path d="M301.297 41.3375C297.789 41.3375 295.115 38.9526 295.115 35.4272V24.0559H297.719V35.2889C297.719 37.5701 299.109 38.9872 301.262 38.9872C303.415 38.9872 304.839 37.5701 304.839 35.2889V24.0559H307.444V35.4272C307.444 38.9526 304.77 41.3375 301.262 41.3375H301.297Z" fill="#1F274D"/>
<path d="M322.796 41.1992L314.842 29.1367V41.1992H312.237V24.0559H314.634L322.587 36.0839V24.0559H325.192V41.1992H322.796Z" fill="#1F274D"/>
<path d="M340.474 39.3674C339.154 40.7499 337.557 41.3029 335.751 41.3029C333.945 41.3029 332.416 40.6462 331.235 39.4711C329.534 37.7775 329.568 35.8765 329.568 32.593C329.568 29.3095 329.568 27.4086 331.235 25.715C332.416 24.5398 333.91 23.8831 335.751 23.8831C339.397 23.8831 341.516 26.268 342.002 29.2058H339.363C338.911 27.3394 337.661 26.2334 335.751 26.2334C334.743 26.2334 333.806 26.6482 333.215 27.3049C332.382 28.2035 332.173 29.1713 332.173 32.6276C332.173 36.0839 332.382 37.0517 333.215 37.9849C333.806 38.6416 334.743 39.0218 335.751 39.0218C336.897 39.0218 337.869 38.5724 338.564 37.812C339.189 37.0862 339.432 36.2221 339.432 35.1161V34.1484H335.751V31.9363H342.037V34.5631C342.037 36.7752 341.62 38.1922 340.474 39.402V39.3674Z" fill="#1F274D"/>
<path d="M350.894 41.3375C348.323 41.3375 346.448 40.7499 344.816 39.0909L346.552 37.3973C347.802 38.6416 349.192 39.0218 350.963 39.0218C353.221 39.0218 354.506 38.054 354.506 36.395C354.506 35.6346 354.297 35.0124 353.811 34.5977C353.36 34.1829 352.943 34.0101 351.936 33.8719L349.921 33.5954C348.532 33.388 347.42 32.9387 346.656 32.2128C345.823 31.4179 345.406 30.3464 345.406 28.9293C345.406 25.9569 347.594 23.8831 351.171 23.8831C353.429 23.8831 355.027 24.4707 356.52 25.8187L354.853 27.4431C353.776 26.4408 352.561 26.1297 351.102 26.1297C349.088 26.1297 347.941 27.2703 347.941 28.7911C347.941 29.4132 348.15 29.9662 348.601 30.381C349.053 30.7612 349.747 31.0377 350.546 31.1759L352.491 31.4524C354.089 31.6944 354.992 32.0746 355.721 32.7313C356.659 33.5608 357.111 34.7705 357.111 36.2567C357.111 39.402 354.54 41.2684 350.928 41.2684L350.894 41.3375Z" fill="#1F274D"/>
<path d="M366.905 26.4062V41.1992H364.3V26.4062H359.576V24.0559H371.663V26.4062H366.94H366.905Z" fill="#1F274D"/>
<path d="M375.102 41.1992V24.0559H386.111V26.4062H377.706V31.4179H384.861V33.7336H377.706V38.8835H386.111V41.2338H375.102V41.1992Z" fill="#1F274D"/>
<path d="M395.732 41.3375C393.926 41.3375 392.398 40.6808 391.217 39.5057C389.515 37.8121 389.55 35.9111 389.55 32.6276C389.55 29.3441 389.55 27.4431 391.217 25.7495C392.398 24.5744 393.961 23.9177 395.732 23.9177C398.893 23.9177 401.254 25.7841 401.88 29.1713H399.205C398.788 27.4431 397.642 26.2334 395.732 26.2334C394.725 26.2334 393.787 26.6136 393.197 27.2703C392.363 28.169 392.155 29.1713 392.155 32.6276C392.155 36.0839 392.363 37.0517 393.197 37.9849C393.787 38.6416 394.725 39.0218 395.732 39.0218C397.642 39.0218 398.823 37.8121 399.24 36.0839H401.88C401.289 39.5057 398.858 41.3375 395.732 41.3375Z" fill="#1F274D"/>
<path d="M415.46 41.1992V33.7336H408.479V41.1992H405.874V24.0559H408.479V31.3833H415.46V24.0559H418.065V41.1992H415.46Z" fill="#1F274D"/>
<path d="M433.624 41.1992L425.671 29.1367V41.1992H423.066V24.0559H425.462L433.416 36.0839V24.0559H436.021V41.1992H433.624Z" fill="#1F274D"/>
<path d="M440.987 41.1992V24.0559H443.592V41.1992H440.987Z" fill="#1F274D"/>
<path d="M458.944 41.1992L454.116 32.7658L451.198 36.2222V41.1992H448.594V24.0559H451.198V32.6622L458.249 24.0559H461.444L455.853 30.7612L462.035 41.1647H458.978L458.944 41.1992Z" fill="#1F274D"/>
<path d="M216.135 64.2874C214.85 64.2874 213.669 63.8035 212.801 62.9394C211.585 61.7297 211.585 60.4509 211.585 57.6858C211.585 54.9208 211.585 53.6419 212.801 52.4322C213.669 51.5681 214.85 51.0843 216.135 51.0843C218.497 51.0843 220.233 52.5013 220.685 54.9553H219.261C218.913 53.3654 217.802 52.3285 216.17 52.3285C215.301 52.3285 214.468 52.6742 213.912 53.2272C213.078 54.0567 213.009 54.9553 213.009 57.6858C213.009 60.4163 213.113 61.3149 213.912 62.1445C214.468 62.732 215.301 63.0431 216.17 63.0431C217.802 63.0431 218.948 62.0062 219.295 60.4163H220.685C220.268 62.8703 218.497 64.2874 216.135 64.2874Z" fill="#1F274D"/>
<path d="M232.841 64.1837L225.894 53.7456V64.1837H224.505V51.1534H225.825L232.771 61.5569V51.1534H234.161V64.1837H232.841Z" fill="#1F274D"/>
<path d="M242.739 64.2874C241.454 64.2874 240.273 63.8035 239.405 62.9394C238.189 61.7297 238.189 60.4509 238.189 57.6858C238.189 54.9208 238.189 53.6419 239.405 52.4322C240.273 51.5681 241.454 51.0843 242.739 51.0843C245.101 51.0843 246.838 52.5013 247.289 54.9553H245.865C245.518 53.3654 244.406 52.3285 242.774 52.3285C241.906 52.3285 241.072 52.6742 240.516 53.2272C239.683 54.0567 239.613 54.9553 239.613 57.6858C239.613 60.4163 239.718 61.3149 240.516 62.1445C241.072 62.732 241.906 63.0431 242.774 63.0431C244.406 63.0431 245.553 62.0062 245.9 60.4163H247.289C246.872 62.8703 245.101 64.2874 242.739 64.2874Z" fill="#1F274D"/>
<path d="M262.258 63.4924C261.772 63.9763 260.973 64.2874 260.036 64.2874C259.028 64.2874 258.23 64.0454 257.465 63.1122V68.193H256.146V55.1627H257.465V56.2342C258.195 55.2664 259.028 55.059 260.036 55.059C260.939 55.059 261.772 55.3701 262.258 55.854C263.161 56.7526 263.37 58.2734 263.37 59.6905C263.37 61.1076 263.196 62.5938 262.258 63.527V63.4924ZM259.793 56.2342C257.813 56.2342 257.5 57.9278 257.5 59.6559C257.5 61.3841 257.813 63.0777 259.793 63.0777C261.772 63.0777 262.05 61.3841 262.05 59.6559C262.05 57.9278 261.772 56.2342 259.793 56.2342Z" fill="#1F274D"/>
<path d="M271.983 56.8908C271.497 56.407 271.115 56.2342 270.42 56.2342C269.101 56.2342 268.267 57.271 268.267 58.6536V64.1837H266.947V55.1973H268.267V56.3033C268.753 55.5429 269.76 55.0936 270.802 55.0936C271.671 55.0936 272.331 55.3009 272.956 55.9231L271.983 56.9254V56.8908Z" fill="#1F274D"/>
<path d="M275.63 60.0361C275.63 62.0062 276.568 63.1468 278.304 63.1468C279.346 63.1468 279.972 62.8357 280.666 62.1099L281.569 62.9048C280.666 63.8035 279.798 64.2874 278.27 64.2874C275.873 64.2874 274.31 62.8703 274.31 59.6905C274.31 56.7872 275.734 55.0936 278.027 55.0936C280.319 55.0936 281.743 56.7872 281.743 59.4485V60.0361H275.63ZM280.111 57.5475C279.763 56.718 278.964 56.1996 277.992 56.1996C277.019 56.1996 276.221 56.718 275.873 57.5475C275.665 58.0314 275.63 58.3079 275.595 59.0338H280.388C280.354 58.3079 280.319 58.0314 280.111 57.5475Z" fill="#1F274D"/>
<path d="M288.759 64.2874C286.466 64.2874 284.765 62.7666 284.765 59.6905C284.765 56.6143 286.501 55.0936 288.759 55.0936C290.009 55.0936 290.808 55.4392 291.746 56.4415L290.843 57.271C290.148 56.5107 289.627 56.2687 288.759 56.2687C287.89 56.2687 287.126 56.6143 286.675 57.3056C286.258 57.8932 286.084 58.5844 286.084 59.725C286.084 60.8656 286.258 61.5569 286.675 62.1444C287.161 62.8357 287.89 63.1813 288.759 63.1813C289.627 63.1813 290.148 62.9048 290.843 62.1444L291.746 63.0085C290.808 64.0108 290.009 64.3565 288.759 64.3565V64.2874Z" fill="#1F274D"/>
<path d="M294.941 52.605V51.1188H296.434V52.605H294.941ZM295.01 64.1837V55.1973H296.33V64.1837H295.01Z" fill="#1F274D"/>
<path d="M303.242 64.2874C301.714 64.2874 300.533 63.9417 299.525 62.974L300.394 62.1099C301.123 62.8703 302.096 63.1468 303.207 63.1468C304.701 63.1468 305.604 62.6283 305.604 61.5569C305.604 60.7619 305.152 60.3472 304.11 60.2435L302.617 60.1052C300.845 59.967 299.908 59.172 299.908 57.6858C299.908 56.0268 301.297 55.059 303.242 55.059C304.527 55.059 305.673 55.3701 306.507 56.0268L305.638 56.8909C305.013 56.407 304.18 56.165 303.242 56.165C301.922 56.165 301.227 56.7181 301.227 57.6513C301.227 58.4116 301.679 58.861 302.825 58.9646L304.284 59.1029C305.881 59.2412 306.958 59.8633 306.958 61.5223C306.958 63.1813 305.465 64.2528 303.277 64.2528L303.242 64.2874Z" fill="#1F274D"/>
<path d="M310.153 52.605V51.1188H311.647V52.605H310.153ZM310.258 64.1837V55.1973H311.577V64.1837H310.258Z" fill="#1F274D"/>
<path d="M321.441 63.2505C320.816 63.8726 319.948 64.2874 318.836 64.2874C317.725 64.2874 316.857 63.8726 316.231 63.2505C315.328 62.3173 315.12 61.073 315.12 59.6559C315.12 58.2388 315.294 56.9945 316.231 56.0613C316.857 55.4392 317.725 55.0244 318.836 55.0244C319.948 55.0244 320.816 55.4392 321.441 56.0613C322.344 56.9945 322.553 58.2388 322.553 59.6559C322.553 61.073 322.379 62.3173 321.441 63.2505ZM320.503 56.8908C320.087 56.4761 319.496 56.2342 318.836 56.2342C318.176 56.2342 317.621 56.4761 317.204 56.8908C316.544 57.5475 316.475 58.6536 316.475 59.6559C316.475 60.6582 316.544 61.7642 317.204 62.4209C317.621 62.8357 318.211 63.0776 318.836 63.0776C319.461 63.0776 320.052 62.8357 320.503 62.4209C321.163 61.7642 321.233 60.6582 321.233 59.6559C321.233 58.6536 321.163 57.5475 320.503 56.8908Z" fill="#1F274D"/>
<path d="M331.895 64.1837V58.6536C331.895 57.0637 331.027 56.2687 329.673 56.2687C328.318 56.2687 327.415 57.0982 327.415 58.6536V64.1837H326.095V55.1973H327.415V56.1996C328.075 55.4738 328.943 55.0936 329.95 55.0936C330.958 55.0936 331.722 55.3701 332.277 55.9231C332.937 56.5452 333.215 57.3747 333.215 58.4116V64.1837H331.895Z" fill="#1F274D"/>
</g>
<defs>
<clipPath id="clip0_1_3">
<rect width="462" height="89" fill="white"/>
</clipPath>
</defs>
</svg>
